<?xml version="1.0" encoding="UTF-8"?>
<svg xmlns="http://www.w3.org/2000/svg" xmlns:xlink="http://www.w3.org/1999/xlink" width="192px" height="px" viewBox="0 0 192 192" version="1.1">
<g id="surface1">
<path style="fill:none;stroke-width:2;stroke-linecap:round;stroke-linejoin:round;stroke:rgb(0%,0%,0%);stroke-opacity:1;stroke-miterlimit:4;" d="M 5 12 L 3 12 L 12 3 L 21 12 L 19 12 " transform="matrix(8,0,0,8,0,0)"/>
<path style="fill:none;stroke-width:2;stroke-linecap:round;stroke-linejoin:round;stroke:rgb(0%,0%,0%);stroke-opacity:1;stroke-miterlimit:4;" d="M 5 12 L 5 19 C 5 20.104492 5.895508 21 7 21 L 17 21 C 18.104492 21 19 20.104492 19 19 L 19 12 " transform="matrix(8,0,0,8,0,0)"/>
<path style="fill:none;stroke-width:2;stroke-linecap:round;stroke-linejoin:round;stroke:rgb(0%,0%,0%);stroke-opacity:1;stroke-miterlimit:4;" d="M 9 21 L 9 15 C 9 13.895508 9.895508 13 11 13 L 13 13 C 14.104492 13 15 13.895508 15 15 L 15 21 " transform="matrix(8,0,0,8,0,0)"/>
</g>
</svg>
