<?xml version="1.0" encoding="UTF-8"?>
<svg xmlns="http://www.w3.org/2000/svg" xmlns:xlink="http://www.w3.org/1999/xlink" width="192px" height="px" viewBox="0 0 192 192" version="1.1">
<g id="surface1">
<path style="fill:none;stroke-width:2;stroke-linecap:round;stroke-linejoin:round;stroke:rgb(0%,0%,0%);stroke-opacity:1;stroke-miterlimit:4;" d="M 12 3 C 19.200195 3 21 4.799805 21 12 C 21 19.200195 19.200195 21 12 21 C 4.799805 21 3 19.200195 3 12 C 3 4.799805 4.799805 3 12 3 Z M 12 3 " transform="matrix(8,0,0,8,0,0)"/>
<path style="fill:none;stroke-width:2;stroke-linecap:round;stroke-linejoin:round;stroke:rgb(0%,0%,0%);stroke-opacity:1;stroke-miterlimit:4;" d="M 8 12 C 8 11.447754 8.447754 11 9 11 L 15 11 C 15.552246 11 16 11.447754 16 12 L 16 15 C 16 15.552246 15.552246 16 15 16 L 9 16 C 8.447754 16 8 15.552246 8 15 Z M 8 12 " transform="matrix(8,0,0,8,0,0)"/>
<path style="fill:none;stroke-width:2;stroke-linecap:round;stroke-linejoin:round;stroke:rgb(0%,0%,0%);stroke-opacity:1;stroke-miterlimit:4;" d="M 10 11 L 10 9 C 10 7.895508 10.895508 7 12 7 C 13.104492 7 14 7.895508 14 9 L 14 11 " transform="matrix(8,0,0,8,0,0)"/>
</g>
</svg>
