<svg width="34" height="34" xmlns="http://www.w3.org/2000/svg" xmlns:xlink="http://www.w3.org/1999/xlink" xml:space="preserve" overflow="hidden"><defs><clipPath id="clip0"><rect x="158" y="594" width="34" height="34"/></clipPath></defs><g clip-path="url(#clip0)" transform="translate(-158 -594)"><path d="M180.667 604.625C180.667 607.755 178.13 610.292 175 610.292 171.87 610.292 169.333 607.755 169.333 604.625 169.333 601.495 171.87 598.958 175 598.958 178.13 598.958 180.667 601.495 180.667 604.625Z"/><path d="M186.333 623.042 186.333 617.375C186.333 616.525 185.908 615.675 185.2 615.108 183.642 613.833 181.658 612.983 179.675 612.417 178.258 611.992 176.7 611.708 175 611.708 173.442 611.708 171.883 611.992 170.325 612.417 168.342 612.983 166.358 613.975 164.8 615.108 164.092 615.675 163.667 616.525 163.667 617.375L163.667 623.042 186.333 623.042Z"/></g></svg>