<svg width="34" height="34" xmlns="http://www.w3.org/2000/svg" xmlns:xlink="http://www.w3.org/1999/xlink" xml:space="preserve" overflow="hidden"><defs><clipPath id="clip0"><rect x="338" y="594" width="34" height="34"/></clipPath></defs><g clip-path="url(#clip0)" transform="translate(-338 -594)"><path d="M355 597.542C347.562 597.542 341.542 603.562 341.542 611 341.542 618.438 347.562 624.458 355 624.458 362.438 624.458 368.458 618.438 368.458 611 368.458 603.562 362.438 597.542 355 597.542ZM354.292 601.083C355.283 601.083 356.062 601.862 356.062 602.854 356.062 603.846 355.283 604.625 354.292 604.625 353.3 604.625 352.521 603.846 352.521 602.854 352.521 601.862 353.3 601.083 354.292 601.083ZM358.542 620.917 351.458 620.917 351.458 618.792 353.938 618.792 353.938 608.167 351.812 608.167 351.812 606.042 356.062 606.042 356.062 608.167 356.062 618.792 358.542 618.792 358.542 620.917Z"/></g></svg>