<svg width="34" height="34" xmlns="http://www.w3.org/2000/svg" xmlns:xlink="http://www.w3.org/1999/xlink" xml:space="preserve" overflow="hidden"><defs><clipPath id="clip0"><rect x="253" y="594" width="34" height="34"/></clipPath></defs><g clip-path="url(#clip0)" transform="translate(-253 -594)"><path d="M269.995 597.542C262.566 597.542 256.544 603.564 256.544 610.993 256.544 618.421 262.566 624.443 269.995 624.443 277.424 624.443 283.446 618.421 283.446 610.993 283.446 610.992 283.446 610.992 283.446 610.991 283.448 603.566 277.431 597.544 270.006 597.542 270.002 597.542 269.999 597.542 269.995 597.542ZM276.589 612.19 271.192 612.19 271.192 617.585 268.798 617.585 268.798 612.189 263.401 612.189 263.401 609.794 268.798 609.794 268.798 604.397 271.192 604.397 271.192 609.794 276.589 609.794Z"/></g></svg>