<svg width="1560" height="1559" xmlns="http://www.w3.org/2000/svg" xmlns:xlink="http://www.w3.org/1999/xlink" xml:space="preserve" overflow="hidden"><defs><filter id="fx0" x="-10%" y="-10%" width="120%" height="120%" filterUnits="userSpaceOnUse" primitiveUnits="userSpaceOnUse"><feComponentTransfer color-interpolation-filters="sRGB"><feFuncR type="discrete" tableValues="0 0"/><feFuncG type="discrete" tableValues="0 0"/><feFuncB type="discrete" tableValues="0 0"/><feFuncA type="linear" slope="0.4" intercept="0"/></feComponentTransfer><feGaussianBlur stdDeviation="7.63889 7.63889"/></filter><clipPath id="clip1"><rect x="744" y="333" width="1560" height="1559"/></clipPath><linearGradient x1="2303.5" y1="1892.5" x2="744.5" y2="332.5" gradientUnits="userSpaceOnUse" spreadMethod="reflect" id="fill2"><stop offset="0" stop-color="#BFBFBF"/><stop offset="0.02" stop-color="#C0C0C0"/><stop offset="0.04" stop-color="#C2C2C2"/><stop offset="0.06" stop-color="#C4C4C4"/><stop offset="0.08" stop-color="#C6C6C6"/><stop offset="0.1" stop-color="#C8C8C8"/><stop offset="0.12" stop-color="#C9C9C9"/><stop offset="0.14" stop-color="#CBCBCB"/><stop offset="0.16" stop-color="#CDCDCD"/><stop offset="0.18" stop-color="#CECECE"/><stop offset="0.2" stop-color="#D0D0D0"/><stop offset="0.22" stop-color="#D1D1D1"/><stop offset="0.24" stop-color="#D3D3D3"/><stop offset="0.26" stop-color="#D5D5D5"/><stop offset="0.28" stop-color="#D6D6D6"/><stop offset="0.3" stop-color="#D7D7D7"/><stop offset="0.32" stop-color="#D9D9D9"/><stop offset="0.34" stop-color="#DADADA"/><stop offset="0.36" stop-color="#DBDBDB"/><stop offset="0.38" stop-color="#DDDDDD"/><stop offset="0.4" stop-color="#DEDEDE"/><stop offset="0.42" stop-color="#DFDFDF"/><stop offset="0.44" stop-color="#E0E0E0"/><stop offset="0.46" stop-color="#E1E1E1"/><stop offset="0.48" stop-color="#E3E3E3"/><stop offset="0.5" stop-color="#E4E4E4"/><stop offset="0.52" stop-color="#E5E5E5"/><stop offset="0.54" stop-color="#E6E6E6"/><stop offset="0.56" stop-color="#E7E7E7"/><stop offset="0.58" stop-color="#E7E7E7"/><stop offset="0.6" stop-color="#E8E8E8"/><stop offset="0.62" stop-color="#E9E9E9"/><stop offset="0.64" stop-color="#EAEAEA"/><stop offset="0.66" stop-color="#EBEBEB"/><stop offset="0.68" stop-color="#EBEBEB"/><stop offset="0.7" stop-color="#ECECEC"/><stop offset="0.72" stop-color="#EDEDED"/><stop offset="0.74" stop-color="#EDEDED"/><stop offset="0.76" stop-color="#EEEEEE"/><stop offset="0.78" stop-color="#EFEFEF"/><stop offset="0.8" stop-color="#EFEFEF"/><stop offset="0.82" stop-color="#EFEFEF"/><stop offset="0.84" stop-color="#F0F0F0"/><stop offset="0.86" stop-color="#F0F0F0"/><stop offset="0.88" stop-color="#F1F1F1"/><stop offset="0.9" stop-color="#F1F1F1"/><stop offset="0.92" stop-color="#F1F1F1"/><stop offset="0.94" stop-color="#F1F1F1"/><stop offset="0.96" stop-color="#F1F1F1"/><stop offset="0.98" stop-color="#F1F1F1"/><stop offset="1" stop-color="#F2F2F2"/></linearGradient><clipPath id="clip3"><rect x="-7" y="-7" width="1355" height="966"/></clipPath><clipPath id="clip4"><rect x="0" y="0" width="1341" height="952"/></clipPath></defs><g clip-path="url(#clip1)" transform="translate(-744 -333)"><path d="M744 750.952C744 520.124 931.123 333 1161.95 333L1886.05 333C2116.88 333 2304 520.124 2304 750.952L2304 1474.05C2304 1704.88 2116.88 1892 1886.05 1892L1161.95 1892C931.123 1892 744 1704.88 744 1474.05Z" fill="url(#fill2)" fill-rule="evenodd"/><g clip-path="url(#clip3)" filter="url(#fx0)" transform="translate(866 660)"><g clip-path="url(#clip4)"><path d="M494.417 873.832C433.836 820.544 501.434 564.625 694.314 466.489 887.194 368.354 925.997 450.915 1293.59 267.105 1325.32 430.844 1278.48 618.676 1057.8 786.219 837.114 953.761 554.997 927.12 494.417 873.832Z" stroke="#548235" stroke-width="28.05" stroke-miterlimit="8" fill="none" fill-rule="evenodd"/><path d="M484.352 848.294C594.735 826.11 705.119 803.927 805.079 752.077 905.039 700.227 994.575 618.711 1084.11 537.194" stroke="#548235" stroke-width="28" stroke-linecap="round" stroke-miterlimit="8" fill="none" fill-rule="evenodd"/><path d="M735.272 767.714C718.306 751.94 701.34 736.165 693.262 706.755 685.183 677.345 685.991 634.299 686.799 591.254" stroke="#548235" stroke-width="28" stroke-linecap="round" stroke-miterlimit="8" fill="none" fill-rule="evenodd"/><path d="M885.212 710.594C934.607 710.594 984.002 710.594 1029.39 697.674 1074.78 684.754 1116.17 658.914 1157.55 633.074" stroke="#548235" stroke-width="28" stroke-linecap="round" stroke-miterlimit="8" fill="none" fill-rule="evenodd"/><path d="M443.863 25.27C580.452 12.215 701.761 112.359 714.816 248.948 727.871 385.537 627.727 506.846 491.138 519.901 405.77 528.06 326.371 492.001 275.639 430.463 175.524 416.364 35.891 428.144 24.5197 394.513 16.9832 355.786 177.091 251.795 230.419 198.099 259.48 105.746 341.421 35.061 443.863 25.27Z" fill="#57412F" fill-rule="evenodd"/></g></g><path d="M1363.87 1526.04C1304.47 1473.79 1370.75 1222.89 1559.85 1126.68 1748.94 1030.47 1786.99 1111.41 2147.37 931.207 2178.48 1091.74 2132.56 1275.88 1916.2 1440.14 1699.85 1604.4 1423.26 1578.28 1363.87 1526.04Z" stroke="#548235" stroke-width="27.5" stroke-miterlimit="8" fill="none" fill-rule="evenodd"/><path d="M1354 1501C1462.22 1479.25 1570.44 1457.5 1668.44 1406.67 1766.44 1355.84 1854.22 1275.92 1942 1196" stroke="#548235" stroke-width="27.5" stroke-linecap="round" stroke-miterlimit="8" fill="none" fill-rule="evenodd"/><path d="M1600 1422C1583.37 1406.54 1566.73 1391.07 1558.81 1362.24 1550.89 1333.4 1551.69 1291.2 1552.48 1249" stroke="#548235" stroke-width="27.5" stroke-linecap="round" stroke-miterlimit="8" fill="none" fill-rule="evenodd"/><path d="M1747 1366C1795.43 1366 1843.85 1366 1888.35 1353.33 1932.85 1340.67 1973.43 1315.33 2014 1290" stroke="#548235" stroke-width="27.5" stroke-linecap="round" stroke-miterlimit="8" fill="none" fill-rule="evenodd"/><path d="M1314.31 694.114C1448.22 681.315 1567.15 779.495 1579.95 913.406 1592.74 1047.32 1494.56 1166.25 1360.65 1179.05 1276.96 1187.05 1199.12 1151.69 1149.38 1091.36 1051.23 1077.54 914.333 1089.09 903.184 1056.12 895.795 1018.15 1052.76 916.197 1105.05 863.554 1133.54 773.012 1213.87 703.713 1314.31 694.114Z" fill="#57412F" fill-rule="evenodd"/></g></svg>